<?xml version="1.0" standalone="no"?>
<!DOCTYPE svg PUBLIC "-//W3C//DTD SVG 20010904//EN"
 "http://www.w3.org/TR/2001/REC-SVG-20010904/DTD/svg10.dtd">
<svg version="1.0" xmlns="http://www.w3.org/2000/svg"
 width="1280.000000pt" height="1170.000000pt" viewBox="0 0 1280.000000 1170.000000"
 preserveAspectRatio="xMidYMid meet">
<metadata>
Created by potrace 1.15, written by Peter Selinger 2001-2017
</metadata>
<g transform="translate(0.000000,1170.000000) scale(0.100000,-0.100000)"
fill="#e91e63" stroke="none">
<path d="M8300 11694 c-14 -3 -79 -16 -145 -29 -66 -13 -147 -27 -180 -30 -80
-9 -151 -27 -331 -85 -162 -51 -192 -64 -211 -89 -21 -27 -15 -81 12 -117 14
-18 25 -41 25 -50 0 -10 -27 -75 -60 -145 -80 -172 -104 -260 -97 -361 3 -48
1 -80 -5 -84 -7 -4 -8 -43 -3 -108 l7 -102 -38 -50 c-20 -27 -52 -66 -70 -86
-71 -79 -92 -162 -55 -209 10 -13 47 -38 82 -54 80 -37 77 -35 56 -46 -22 -13
-47 -61 -47 -92 0 -26 23 -51 57 -61 19 -6 21 -11 12 -33 -7 -19 -4 -44 11
-100 l21 -74 -36 -70 c-30 -59 -37 -81 -37 -134 0 -103 24 -160 102 -235 144
-139 333 -192 502 -140 51 16 81 34 142 87 108 94 175 149 217 179 35 24 38
24 72 10 l36 -14 -49 -49 -49 -49 24 -60 c50 -124 52 -142 22 -251 -15 -54
-50 -172 -78 -263 -63 -205 -78 -279 -86 -403 -6 -96 -6 -98 21 -126 l28 -29
-23 -16 c-13 -9 -43 -16 -67 -16 -61 0 -102 -21 -148 -73 -42 -49 -156 -131
-222 -161 -38 -17 -46 -18 -99 -4 -98 24 -232 8 -421 -53 -158 -51 -272 -72
-272 -51 0 6 9 29 20 50 33 62 39 229 30 709 -5 236 -12 454 -15 484 -18 158
-38 295 -47 305 -10 13 -96 30 -198 39 -36 3 -149 1 -250 -5 -102 -6 -473 -15
-825 -20 -352 -6 -692 -14 -755 -19 -368 -30 -462 -32 -987 -28 -404 3 -581 1
-673 -8 -69 -7 -174 -16 -234 -20 -62 -4 -137 -15 -173 -26 -36 -11 -70 -18
-76 -16 -9 3 -10 37 -5 123 19 340 20 428 9 679 -15 337 -26 446 -45 460 -8 5
-23 15 -33 22 -16 10 -16 13 -3 22 8 6 36 11 62 11 90 0 118 27 120 115 2 96
-65 148 -192 149 -93 1 -157 -22 -201 -71 -37 -43 -36 -79 5 -140 14 -21 26
-41 26 -44 0 -4 -37 -10 -83 -14 -139 -11 -144 -14 -218 -112 -104 -138 -136
-204 -142 -290 -2 -35 -9 -45 -47 -75 -105 -80 -143 -228 -164 -640 -8 -142
-17 -262 -20 -265 -3 -4 -6 7 -6 24 0 26 -4 31 -31 37 -17 3 -48 6 -68 6 -20
0 -80 10 -133 21 -95 22 -97 22 -130 3 -30 -18 -45 -18 -178 -11 -176 10 -466
-5 -646 -35 -101 -16 -180 -21 -361 -22 -127 0 -235 -5 -239 -9 -22 -22 2
-1251 31 -1627 18 -234 20 -841 3 -973 -17 -138 15 -621 52 -767 30 -119 33
-217 16 -501 -14 -215 -15 -308 -6 -485 14 -298 13 -413 -1 -1049 -24 -1083
-9 -1555 64 -1975 20 -119 22 -158 23 -755 1 -551 3 -636 17 -680 12 -35 13
-51 5 -56 -13 -8 -5 -164 13 -233 l11 -43 551 -6 c678 -9 794 -3 1492 69 476
49 587 56 795 54 369 -4 493 -2 630 11 89 9 251 13 475 11 268 -2 403 2 640
19 443 32 668 30 1045 -11 293 -32 321 -33 725 -34 231 -1 499 -5 595 -10 130
-6 231 -4 395 7 414 30 968 52 973 39 6 -19 35 -13 66 14 l28 25 -22 24 c-22
23 -22 25 -6 65 9 22 16 62 16 89 l0 48 122 6 c66 4 154 7 195 7 l74 0 15 36
c22 53 29 162 16 257 -6 45 -16 141 -22 212 -17 210 -73 424 -166 637 l-43 98
21 48 c56 126 70 289 44 527 -28 259 -35 342 -51 635 -35 662 -61 891 -125
1114 -11 38 -19 71 -17 72 1 1 27 -2 57 -8 83 -15 351 -3 565 26 261 36 336
53 401 92 69 42 67 41 209 54 66 6 183 19 260 30 77 10 182 22 234 26 l94 7
-6 -184 c-4 -101 -11 -413 -17 -694 -5 -280 -12 -582 -14 -670 -3 -88 0 -322
6 -520 6 -226 7 -528 1 -810 -8 -438 -2 -879 12 -893 4 -4 27 -6 51 -4 24 1
56 3 72 3 15 1 94 -4 176 -11 118 -10 178 -10 285 -1 75 7 217 19 316 28 115
10 361 18 683 22 l504 6 18 23 c10 12 22 22 28 22 16 0 23 231 11 381 -8 106
-8 193 0 339 7 107 11 312 11 455 -1 143 3 409 9 590 6 182 11 553 11 826 0
485 1 499 25 627 19 101 23 149 18 214 -3 54 0 122 12 196 9 62 15 143 14 179
-2 64 -2 66 27 78 l29 12 -27 6 c-15 4 -42 20 -60 36 -25 22 -78 42 -223 84
-214 63 -419 116 -575 147 -57 12 -106 23 -109 25 -2 2 16 64 39 137 86 269
101 341 102 480 0 147 -18 210 -141 488 -117 264 -130 299 -161 433 -28 123
-26 177 7 235 53 89 31 183 -88 372 -185 296 -266 459 -323 647 -24 81 -69
225 -99 318 -30 94 -74 249 -97 345 -111 464 -146 563 -267 742 -75 113 -94
150 -127 248 -34 104 -49 132 -158 295 -250 371 -391 536 -505 588 -72 32
-220 28 -430 -12 -89 -17 -176 -31 -193 -31 -30 0 -31 1 -25 33 4 17 19 57 32
87 24 53 25 60 19 215 -6 174 -25 290 -75 450 -23 75 -31 118 -31 176 0 74 -2
79 -41 135 -22 33 -47 70 -56 84 -22 34 -215 200 -300 257 -89 61 -195 109
-291 134 -75 19 -252 32 -302 23z"/>
</g>
</svg>
