

<svg xmlns="http://www.w3.org/2000/svg" xmlns:xlink="http://www.w3.org/1999/xlink" width="16px" height="16px" viewBox="0 0 16 16" version="1.1">
<g id="surface1">
<path style=" stroke:none;fill-rule:nonzero;fill:rgb(24.313725%,46.666667%,74.901961%);fill-opacity:1;" d="M 8 0.167969 C 3.582031 0.167969 0 3.761719 0 8.199219 C 0 11.746094 2.292969 14.757812 5.472656 15.820312 C 5.871094 15.894531 6.015625 15.644531 6.015625 15.433594 C 6.015625 15.242188 6.011719 14.738281 6.007812 14.066406 C 3.78125 14.550781 3.3125 12.988281 3.3125 12.988281 C 2.949219 12.0625 2.421875 11.816406 2.421875 11.816406 C 1.695312 11.316406 2.476562 11.328125 2.476562 11.328125 C 3.28125 11.382812 3.703125 12.15625 3.703125 12.15625 C 4.417969 13.382812 5.578125 13.027344 6.03125 12.820312 C 6.105469 12.300781 6.3125 11.949219 6.539062 11.746094 C 4.765625 11.542969 2.898438 10.855469 2.898438 7.777344 C 2.898438 6.902344 3.207031 6.183594 3.71875 5.621094 C 3.636719 5.417969 3.363281 4.601562 3.796875 3.496094 C 3.796875 3.496094 4.46875 3.28125 5.996094 4.320312 C 6.636719 4.144531 7.320312 4.054688 8 4.050781 C 8.679688 4.054688 9.363281 4.144531 10.003906 4.320312 C 11.53125 3.28125 12.203125 3.496094 12.203125 3.496094 C 12.636719 4.601562 12.363281 5.417969 12.28125 5.621094 C 12.792969 6.183594 13.101562 6.902344 13.101562 7.777344 C 13.101562 10.863281 11.234375 11.542969 9.449219 11.742188 C 9.738281 11.988281 9.992188 12.480469 9.992188 13.230469 C 9.992188 14.304688 9.984375 15.167969 9.984375 15.433594 C 9.984375 15.648438 10.128906 15.898438 10.535156 15.820312 C 13.710938 14.753906 16 11.746094 16 8.199219 C 16 3.761719 12.417969 0.167969 8 0.167969 Z M 8 0.167969 "/>
<path style=" stroke:none;fill-rule:nonzero;fill:rgb(24.313725%,46.666667%,74.901961%);fill-opacity:1;" d="M 8 0.167969 C 3.582031 0.167969 0 3.761719 0 8.199219 C 0 11.746094 2.292969 14.757812 5.472656 15.820312 C 5.871094 15.894531 6.015625 15.644531 6.015625 15.433594 C 6.015625 15.242188 6.011719 14.738281 6.007812 14.066406 C 3.78125 14.550781 3.3125 12.988281 3.3125 12.988281 C 2.949219 12.0625 2.421875 11.816406 2.421875 11.816406 C 1.695312 11.316406 2.476562 11.328125 2.476562 11.328125 C 3.28125 11.382812 3.703125 12.15625 3.703125 12.15625 C 4.417969 13.382812 5.578125 13.027344 6.03125 12.820312 C 6.105469 12.300781 6.3125 11.949219 6.539062 11.746094 C 4.765625 11.542969 2.898438 10.855469 2.898438 7.777344 C 2.898438 6.902344 3.207031 6.183594 3.71875 5.621094 C 3.636719 5.417969 3.363281 4.601562 3.796875 3.496094 C 3.796875 3.496094 4.46875 3.28125 5.996094 4.320312 C 6.636719 4.144531 7.320312 4.054688 8 4.050781 C 8.679688 4.054688 9.363281 4.144531 10.003906 4.320312 C 11.53125 3.28125 12.203125 3.496094 12.203125 3.496094 C 12.636719 4.601562 12.363281 5.417969 12.28125 5.621094 C 12.792969 6.183594 13.101562 6.902344 13.101562 7.777344 C 13.101562 10.863281 11.234375 11.542969 9.449219 11.742188 C 9.738281 11.988281 9.992188 12.480469 9.992188 13.230469 C 9.992188 14.304688 9.984375 15.167969 9.984375 15.433594 C 9.984375 15.648438 10.128906 15.898438 10.535156 15.820312 C 13.710938 14.753906 16 11.746094 16 8.199219 C 16 3.761719 12.417969 0.167969 8 0.167969 Z M 8 0.167969 "/>
<path style=" stroke:none;fill-rule:nonzero;fill:rgb(6.666667%,29.803922%,50.980392%);fill-opacity:1;" d="M 12.210938 3.519531 C 12.632812 4.613281 12.363281 5.421875 12.28125 5.621094 C 12.792969 6.183594 13.101562 6.902344 13.101562 7.777344 C 13.101562 10.863281 11.234375 11.542969 9.449219 11.742188 C 9.738281 11.988281 9.992188 12.480469 9.992188 13.230469 C 9.992188 14.304688 9.984375 15.167969 9.984375 15.433594 C 9.984375 15.648438 10.128906 15.898438 10.535156 15.820312 C 13.710938 14.753906 16 11.746094 16 8.199219 C 16 7.246094 15.832031 6.332031 15.53125 5.484375 C 14.425781 4.320312 13.199219 3.546875 12.210938 3.519531 Z M 12.210938 3.519531 "/>
<path style=" stroke:none;fill-rule:nonzero;fill:rgb(6.666667%,29.803922%,50.980392%);fill-opacity:1;" d="M 6.226562 12.171875 C 6.316406 11.992188 6.425781 11.851562 6.539062 11.746094 C 5.566406 11.636719 4.566406 11.375 3.859375 10.660156 C 4.402344 11.5625 5.289062 11.972656 6.226562 12.171875 Z M 6.226562 12.171875 "/>
<path style=" stroke:none;fill-rule:nonzero;fill:rgb(42.352941%,66.27451%,91.764706%);fill-opacity:1;" d="M 0.417969 8.738281 C 0.417969 4.304688 4 0.707031 8.417969 0.707031 C 10.871094 0.707031 13.0625 1.816406 14.53125 3.5625 C 13.082031 1.507812 10.699219 0.167969 8 0.167969 C 3.582031 0.167969 0 3.761719 0 8.199219 C 0 10.175781 0.714844 11.988281 1.894531 13.386719 C 0.964844 12.074219 0.417969 10.472656 0.417969 8.738281 Z M 0.417969 8.738281 "/>
<path style=" stroke:none;fill-rule:nonzero;fill:rgb(3.137255%,24.313725%,40%);fill-opacity:1;" d="M 10.410156 13.769531 C 10.410156 13.023438 10.15625 12.53125 9.867188 12.28125 C 11.648438 12.085938 13.519531 11.40625 13.519531 8.320312 C 13.519531 7.441406 13.210938 6.726562 12.695312 6.164062 C 12.78125 5.960938 13.054688 5.144531 12.617188 4.039062 C 12.617188 4.039062 12.535156 4.015625 12.363281 4.023438 C 12.550781 4.855469 12.347656 5.453125 12.28125 5.621094 C 12.792969 6.183594 13.101562 6.902344 13.101562 7.777344 C 13.101562 10.863281 11.234375 11.542969 9.449219 11.742188 C 9.738281 11.988281 9.992188 12.480469 9.992188 13.230469 C 9.992188 14.304688 9.984375 15.167969 9.984375 15.433594 C 9.984375 15.621094 10.097656 15.835938 10.402344 15.832031 C 10.402344 15.46875 10.410156 14.699219 10.410156 13.769531 Z M 10.410156 13.769531 "/>
<path style=" stroke:none;fill-rule:nonzero;fill:rgb(6.666667%,29.803922%,50.980392%);fill-opacity:1;" d="M 3.789062 13.675781 C 3.957031 14.023438 4.523438 14.851562 6.011719 14.675781 C 6.007812 14.496094 6.007812 14.289062 6.007812 14.066406 C 4.859375 14.316406 4.179688 14.023438 3.789062 13.675781 Z M 3.789062 13.675781 "/>
<path style=" stroke:none;fill-rule:nonzero;fill:rgb(42.352941%,66.27451%,91.764706%);fill-opacity:1;" d="M 4.078125 12.625 C 4.023438 12.546875 3.929688 12.417969 3.789062 12.285156 C 3.878906 12.417969 3.976562 12.53125 4.078125 12.625 Z M 4.078125 12.625 "/>
</g></svg>